<svg width="35" height="34" viewBox="0 0 35 34" fill="none" xmlns="http://www.w3.org/2000/svg">
<path d="M2.17223 23C0.50556 25.5 0.172226 31 4.17222 31.5C8.53824 32.0458 14.7435 20.5 19.7435 13" stroke="#F0047F" stroke-width="2" stroke-linecap="round" stroke-linejoin="round"/>
<path d="M20.9931 11.1251C20.993 11.1255 20.9927 11.1258 20.9926 11.1261C20.9174 11.2555 20.9541 11.4227 21.0772 11.5105C21.2006 11.5986 21.3692 11.5771 21.4642 11.4612L24.1421 8.19341L24.1651 9.64277C24.1667 9.74806 24.2379 9.8403 24.3391 9.86831C24.4403 9.8963 24.5467 9.8532 24.5992 9.76283L25.0454 8.99566C25.0582 8.97364 25.0673 8.94959 25.0723 8.92443L25.7372 5.60022L27.3651 2.79005C27.9715 1.70958 27.6224 1.38834 27.501 1.31563C27.4069 1.25925 27.2427 1.20735 26.9955 1.28012C26.7447 1.35393 26.4592 1.53891 26.1228 1.84554C26.0104 1.94789 25.9392 1.98966 25.8638 2.03388C25.5988 2.18938 25.4332 2.31751 24.8451 3.3287L21.6288 8.85949L19.155 9.04105C19.0617 9.0479 18.9782 9.10009 18.9312 9.181L18.721 9.54243C18.6778 9.61682 18.6702 9.70728 18.7004 9.78895C18.7306 9.87064 18.7953 9.93489 18.8768 9.96404L21.1893 10.7913L20.9931 11.1251Z" fill="#F0047F"/>
<path d="M11.1999 31.8465C13.0462 32.5907 15.0622 33 17.1752 33C26.0123 33 33.1759 25.8363 33.1759 16.9992C33.1759 12.7777 31.5404 8.93973 28.8696 6.08093" stroke="black" stroke-width="2" stroke-miterlimit="10" stroke-linecap="round"/>
<path d="M22.2971 1.83824C20.6888 1.29558 18.9669 1 17.1752 1C8.3381 1 1.17444 8.16366 1.17444 17.0008C1.17444 20.7448 2.45983 24.1872 4.61378 26.9126" stroke="black" stroke-width="2" stroke-miterlimit="10" stroke-linecap="round"/>
</svg>
