<svg width="36" height="35" viewBox="0 0 36 35" fill="none" xmlns="http://www.w3.org/2000/svg">
<path d="M13.75 12L1 8V29.5L13.75 34L24.375 29L34.4688 34L35 12L24.375 8" stroke="black" stroke-width="2" stroke-linecap="round" stroke-linejoin="round"/>
<path d="M24 7C24 7.75328 23.695 8.83068 23.1382 10.1058C22.5933 11.3538 21.8536 12.689 21.0879 13.9223C20.3233 15.1538 19.5453 16.2639 18.9338 17.0591C18.7574 17.2886 18.598 17.4876 18.4596 17.6532C18.2894 17.4763 18.0899 17.2594 17.8668 17.0068C17.1623 16.2088 16.261 15.0971 15.374 13.8653C14.4851 12.6311 13.6257 11.2974 12.993 10.0528C12.3433 8.77486 12 7.71879 12 7C12 3.68629 14.6863 1 18 1C21.3137 1 24 3.68629 24 7ZM18.0036 18.1491C18.0036 18.1491 18.0044 18.1485 18.0059 18.1473C18.0044 18.1485 18.0037 18.1491 18.0036 18.1491Z" stroke="#F0047F" stroke-width="2"/>
<circle cx="18" cy="7" r="2" stroke="#F0047F" stroke-width="2"/>
</svg>
