<svg width="36" height="36" viewBox="0 0 36 36" fill="none" xmlns="http://www.w3.org/2000/svg">
<rect x="7.10001" y="7.1001" width="21.8" height="21.8" rx="3" stroke="#393939" stroke-width="2"/>
<path d="M11.7044 16.8622C12.1233 16.8622 12.4046 17.1698 12.4192 17.6093H10.969C10.9983 17.1757 11.2942 16.8622 11.7044 16.8622ZM12.4221 18.538C12.343 18.7958 12.0852 18.9657 11.7454 18.9657C11.2678 18.9657 10.9632 18.6317 10.9632 18.1337V18.0897H13.134V17.8524C13.134 16.9091 12.5833 16.2968 11.7014 16.2968C10.8049 16.2968 10.2366 16.9442 10.2366 17.9257C10.2366 18.9159 10.7991 19.5282 11.7307 19.5282C12.4661 19.5282 13.011 19.1239 13.1048 18.538H12.4221ZM13.5061 18.2772C13.5383 19.0565 14.177 19.537 15.1497 19.537C16.1721 19.537 16.8167 19.0331 16.8167 18.2303C16.8167 17.6005 16.4534 17.246 15.595 17.0497L15.1087 16.9384C14.5901 16.8153 14.3762 16.6512 14.3762 16.37C14.3762 16.0184 14.6985 15.7841 15.176 15.7841C15.6594 15.7841 15.9905 16.0214 16.0257 16.4169H16.7464C16.7288 15.6727 16.1135 15.1688 15.1819 15.1688C14.262 15.1688 13.6087 15.6757 13.6087 16.4257C13.6087 17.0292 13.9778 17.4042 14.7571 17.5829L15.3049 17.7118C15.8382 17.8378 16.0549 18.0135 16.0549 18.3182C16.0549 18.6698 15.7005 18.9218 15.1907 18.9218C14.6751 18.9218 14.2854 18.6669 14.2385 18.2772H13.5061ZM18.1438 19.4667V15.2391H17.388V19.4667H18.1438ZM23.2503 19.4667V15.2391H22.3772L21.0823 18.4296H21.0589L19.7639 15.2391H18.888V19.4667H19.5706V16.4667H19.5911L20.8128 19.4315H21.3284L22.5501 16.4667H22.5706V19.4667H23.2503Z" fill="#F0047F"/>
<path d="M9.5 3.83333V1" stroke="#393939" stroke-width="2" stroke-linecap="round" stroke-linejoin="round"/>
<path d="M15.1667 3.83333V1" stroke="#393939" stroke-width="2" stroke-linecap="round" stroke-linejoin="round"/>
<path d="M20.8333 3.83333V1" stroke="#393939" stroke-width="2" stroke-linecap="round" stroke-linejoin="round"/>
<path d="M26.5 3.83333V1" stroke="#393939" stroke-width="2" stroke-linecap="round" stroke-linejoin="round"/>
<path d="M3.83333 26.5L1 26.5" stroke="#F0047F" stroke-width="2" stroke-linecap="round" stroke-linejoin="round"/>
<path d="M3.83333 20.8334L1 20.8334" stroke="#F0047F" stroke-width="2" stroke-linecap="round" stroke-linejoin="round"/>
<path d="M3.83333 15.1666L1 15.1666" stroke="#F0047F" stroke-width="2" stroke-linecap="round" stroke-linejoin="round"/>
<path d="M3.83333 9.5L1 9.5" stroke="#F0047F" stroke-width="2" stroke-linecap="round" stroke-linejoin="round"/>
<path d="M9.5 35V32.1666" stroke="#393939" stroke-width="2" stroke-linecap="round" stroke-linejoin="round"/>
<path d="M15.1667 35V32.1666" stroke="#393939" stroke-width="2" stroke-linecap="round" stroke-linejoin="round"/>
<path d="M20.8333 35V32.1666" stroke="#393939" stroke-width="2" stroke-linecap="round" stroke-linejoin="round"/>
<path d="M26.5 35V32.1666" stroke="#393939" stroke-width="2" stroke-linecap="round" stroke-linejoin="round"/>
<path d="M35 26.5L32.1667 26.5" stroke="#F0047F" stroke-width="2" stroke-linecap="round" stroke-linejoin="round"/>
<path d="M35 20.8334L32.1667 20.8334" stroke="#F0047F" stroke-width="2" stroke-linecap="round" stroke-linejoin="round"/>
<path d="M35 15.1666L32.1667 15.1666" stroke="#F0047F" stroke-width="2" stroke-linecap="round" stroke-linejoin="round"/>
<path d="M35 9.5L32.1667 9.5" stroke="#F0047F" stroke-width="2" stroke-linecap="round" stroke-linejoin="round"/>
</svg>
