<svg width="90" height="38" viewBox="0 0 90 38" fill="none" xmlns="http://www.w3.org/2000/svg">
<path d="M55.9111 0H90V31.7868H69.0272L70.8551 28.5841L61.5071 38V31.7868H55.9111V0ZM84.5804 19.9528L84.9171 6.82174H81.582L81.9187 19.9528H84.5804ZM81.7103 24.965H84.7889V21.8584H81.7103V24.965ZM61.2826 15.9014C61.2826 20.5293 64.3291 25.1732 70.342 25.1892C76.3548 25.1892 79.3372 20.5453 79.3372 15.9014C79.3372 11.2575 76.3548 6.59756 70.3099 6.59756C64.3291 6.61357 61.2826 11.2575 61.2826 15.9014ZM70.374 9.65613H70.4061C74.1902 9.65613 76.0662 12.7307 76.0662 15.8053C76.0662 18.8639 74.1902 21.9545 70.4061 21.9545H70.374C66.606 21.9385 64.6658 18.8639 64.6658 15.8053C64.6658 12.7307 66.606 9.67215 70.374 9.65613Z" fill="#EF047F"/>
<path d="M4.05667 6.78967L9.25178 20.7054L14.4469 6.78967H18.4875V24.965H15.3608V18.9759L15.6815 10.9532L10.3581 24.965H8.11335L2.806 10.9692L3.11065 18.9759V24.965H0V6.78967H4.05667Z" fill="black"/>
<path d="M21.3253 18.0793C21.3253 16.7661 21.5818 15.5651 22.111 14.5082C22.6401 13.4514 23.3616 12.6187 24.2916 12.0582C25.2376 11.4977 26.328 11.2095 27.5466 11.2095C29.3584 11.2095 30.8176 11.786 31.94 12.971C33.0784 14.1399 33.6717 15.6932 33.7679 17.6309L33.7839 18.3355C33.7839 19.6806 33.5274 20.8656 33.0303 21.9065C32.5172 22.9634 31.7957 23.764 30.8496 24.3405C29.9036 24.917 28.8133 25.2053 27.5786 25.2053C25.7026 25.2053 24.1794 24.5807 23.057 23.2996C21.9185 22.0346 21.3413 20.3372 21.3413 18.2234V18.0793H21.3253ZM24.3397 18.3515C24.3397 19.7447 24.6283 20.8336 25.1895 21.6182C25.7507 22.4029 26.5525 22.8032 27.5626 22.8032C28.5888 22.8032 29.3745 22.4029 29.9357 21.6022C30.4969 20.8015 30.7855 19.6326 30.7855 18.0953C30.7855 16.7341 30.4969 15.6452 29.9196 14.8445C29.3424 14.0599 28.5407 13.6595 27.5466 13.6595C26.5685 13.6595 25.7828 14.0439 25.2056 14.8445C24.6283 15.6132 24.3397 16.7822 24.3397 18.3515Z" fill="black"/>
<path d="M44.6893 11.4658H47.6877V24.9652H44.6893V15.9496L39.4461 24.9652H36.4477V11.4658H39.4461V20.4814L44.6893 11.4658ZM46.0842 6.27747C46.0842 7.33436 45.7155 8.18307 44.9939 8.82361C44.2724 9.48016 43.3103 9.80043 42.0917 9.80043C40.8731 9.80043 39.9111 9.46415 39.1735 8.82361C38.4519 8.18307 38.0832 7.33436 38.0832 6.27747H40.344C40.344 6.82192 40.5043 7.23827 40.809 7.54253C41.1136 7.84679 41.5466 7.99091 42.0917 7.99091C42.6369 7.99091 43.0538 7.84679 43.3584 7.54253C43.6631 7.23827 43.8074 6.82192 43.8074 6.27747H46.0842Z" fill="black"/>
</svg>
