<svg width="40" height="40" viewBox="0 0 40 40" fill="none" xmlns="http://www.w3.org/2000/svg">
<rect x="1" y="1" width="18.7692" height="31.8461" rx="3" stroke="#393939" stroke-width="2"/>
<rect x="19.5641" y="7.15381" width="18.7692" height="31.8461" rx="3" stroke="#393939" stroke-width="2"/>
<path d="M26.6819 16.9161C26.2532 16.5679 25.6234 16.633 25.2752 17.0617C24.9269 17.4903 24.992 18.1201 25.4207 18.4684L26.6819 16.9161ZM32.2051 22.6923L32.8891 23.4218C33.0997 23.2243 33.2147 22.9454 33.2045 22.6569C33.1943 22.3683 33.0598 22.0982 32.8357 21.9161L32.2051 22.6923ZM25.3673 27.732C24.9644 28.1097 24.944 28.7425 25.3217 29.1454C25.6995 29.5483 26.3323 29.5688 26.7352 29.191L25.3673 27.732ZM25.4207 18.4684L31.5745 23.4684L32.8357 21.9161L26.6819 16.9161L25.4207 18.4684ZM31.5212 21.9627L25.3673 27.732L26.7352 29.191L32.8891 23.4218L31.5212 21.9627Z" fill="#F0047F"/>
<path d="M12.4463 10.7623C12.875 10.4141 13.5048 10.4792 13.853 10.9079C14.2013 11.3365 14.1361 11.9663 13.7075 12.3146L12.4463 10.7623ZM6.92307 16.5385L6.23913 17.268C6.02848 17.0705 5.91348 16.7916 5.9237 16.503C5.93393 16.2145 6.06838 15.9444 6.29248 15.7623L6.92307 16.5385ZM13.7609 21.5781C14.1638 21.9559 14.1842 22.5887 13.8065 22.9916C13.4287 23.3945 12.7959 23.415 12.393 23.0372L13.7609 21.5781ZM13.7075 12.3146L7.55367 17.3146L6.29248 15.7623L12.4463 10.7623L13.7075 12.3146ZM7.60702 15.8089L13.7609 21.5781L12.393 23.0372L6.23913 17.268L7.60702 15.8089Z" fill="#F0047F"/>
</svg>
