<svg width="24" height="24" viewBox="0 0 24 24" fill="none" xmlns="http://www.w3.org/2000/svg">
<path fill-rule="evenodd" clip-rule="evenodd" d="M4 3H7.5C8.05 3 8.5 3.45 8.5 4C8.5 5.25 8.7 6.45 9.07 7.57C9.18 7.92 9.1 8.31 8.82 8.59L6.62 10.79C8.06 13.62 10.38 15.93 13.21 17.38L15.41 15.18C15.61 14.99 15.86 14.89 16.12 14.89C16.22 14.89 16.33 14.9 16.43 14.94C17.55 15.31 18.76 15.51 20 15.51C20.55 15.51 21 15.96 21 16.51V20C21 20.55 20.55 21 20 21C10.61 21 3 13.39 3 4C3 3.45 3.45 3 4 3ZM6.54 5C6.6 5.89 6.75 6.76 6.99 7.59L5.79 8.79C5.38 7.59 5.12 6.32 5.03 5H6.54ZM16.4 17.02C17.25 17.26 18.12 17.41 19 17.47V18.96C17.68 18.87 16.41 18.61 15.2 18.21L16.4 17.02Z" fill="#F0047F"/>
<path fill-rule="evenodd" clip-rule="evenodd" d="M21 9.69182H16.6935L17.0686 9.01838L15.1479 11V9.69182C14.7128 9.69182 14.4352 9.69182 14 9.69182V3H21V9.69182ZM19.9609 4.4359H19.2781L19.3494 7.19932H19.8896L19.9609 4.4359ZM19.3006 7.60184V8.25206H19.9309V7.60184H19.3006ZM16.9636 4.38945C15.7294 4.38945 15.1029 5.36865 15.1029 6.34785C15.1029 7.32704 15.7294 8.30237 16.9636 8.30237C18.1977 8.30237 18.8092 7.32317 18.8092 6.34398C18.8092 5.36478 18.1977 4.38945 16.9636 4.38945ZM16.9636 5.09773C16.2133 5.09773 15.8269 5.72085 15.8269 6.34785C15.8269 6.97484 16.2133 7.5941 16.9636 7.5941C17.7138 7.5941 18.0852 6.97097 18.0852 6.34398C18.0852 5.71698 17.7176 5.09773 16.9636 5.09773Z" fill="#F0047F"/>
</svg>
